# xmcd
#
# Track frame offsets:
# 150
# 12824
# 25498
# 38172
# 50846
# 63520
# 76194
# 88868
# 101542
# 114216
# 126890
# 139564
# 152238
# 164912
# 177586
# 190260
# 202934
#
# Disc length: 2874 seconds
#
#
# Revision: 0
# Processed by: cddbd v1.4PL0 Copyright (c) Steve Scherf et al.
# Submitted via: FreeRIP 2.40 
#
DISCID=e80b3811
DTITLE=Johnny Cash - The Man in Black
DYEAR=1900
DGENRE=Country
TTITLE0=Bury Me in Black
TTITLE1=Bury Me in Black
TTITLE2=Bury Me in Black
TTITLE3=Bury Me in Black
TTITLE4=Bury Me in Black
TTITLE5=Bury Me in Black
TTITLE6=Bury Me in Black
TTITLE7=Bury Me in Black
TTITLE8=Bury Me in Black
TTITLE9=Bury Me in Black
TTITLE10=Bury Me in Black
TTITLE11=Bury Me in Black
TTITLE12=Bury Me in Black
TTITLE13=Bury Me in Black
TTITLE14=Bury Me in Black
TTITLE15=Bury Me in Black
TTITLE16=Bury Me in Black
EXTD=Johnny Cash
EXTT0=Johnny Cash
EXTT1=Johnny Cash
EXTT2=Johnny Cash
EXTT3=Johnny Cash
EXTT4=Johnny Cash
EXTT5=Johnny Cash
EXTT6=Johnny Cash
EXTT7=Johnny Cash
EXTT8=Johnny Cash
EXTT9=Johnny Cash
EXTT10=Johnny Cash
EXTT11=Johnny Cash
EXTT12=Johnny Cash
EXTT13=Johnny Cash
EXTT14=Johnny Cash
EXTT15=Johnny Cash
EXTT16=Johnny Cash
PLAYORDER=
